<?xml version="1.0" encoding="utf-8"?>
<!-- Generator: Adobe Illustrator 24.0.2, SVG Export Plug-In . SVG Version: 6.00 Build 0)  -->
<svg version="1.1" id="Layer_1" xmlns="http://www.w3.org/2000/svg" xmlns:xlink="http://www.w3.org/1999/xlink" x="0px" y="0px"
	 viewBox="0 0 347.3 39.5" style="enable-background:new 0 0 347.3 39.5;" xml:space="preserve">
<style type="text/css">
	.st0{fill:none;}
	.st1{fill:#231F20;}
	.st2{fill:#FFFFFF;}
</style>
<title>Omnivox_Logo</title>
<path d="M11.3,8.5c0-0.3,0-0.5,0.1-0.8H0.1C0,7.9,0,8.2,0,8.5v3.7h11.3L11.3,8.5z"/>
<path d="M36.7,2.7C35.2,1.1,33.2,0.1,31,0H8.5C6.3,0.1,4.2,1.1,2.8,2.7C1.9,3.6,1.2,4.5,0.6,5.6h38.1C38.2,4.5,37.5,3.6,36.7,2.7z"
	/>
<path d="M28.1,31c0,0.7-0.3,1.5-0.8,2c-0.5,0.5-1.2,0.8-2,0.8H14.1c-1.5,0-2.8-1.2-2.8-2.8c0,0,0,0,0-0.1V13.1H0V31
	c0.5,4.5,4,8,8.5,8.5H31c2.2-0.1,4.3-1.1,5.7-2.8c1.6-1.5,2.6-3.5,2.7-5.7V13.1H28.1V31z"/>
<path d="M39.3,7.7H28c0.1,0.3,0.1,0.5,0.1,0.8v3.7h11.3V8.5C39.4,8.2,39.4,7.9,39.3,7.7z"/>
<path d="M61.6,5.4c-2-2.1-3.2-3.2-3.5-3.5c-1.3-1.2-2.9-1.8-4.6-1.9h-5.6C46.3,0,45,1.3,45,2.9c0,0,0,0,0,0v2.8h16.8L61.6,5.4z"/>
<path d="M84.4,2.9c0-0.7-0.3-1.5-0.8-2c-0.5-0.5-1.2-0.8-2-0.8H76c-1.7,0.1-3.4,0.7-4.6,1.9c-0.3,0.3-1.5,1.4-3.5,3.5l-0.2,0.2h16.8
	L84.4,2.9z"/>
<rect x="45" y="7.7" width="39.4" height="4.5"/>
<path d="M45.1,36.6c0,1.6,1.2,2.8,2.8,2.8c0,0,0,0,0,0h5.6c0.8,0,1.5-0.3,2-0.8c0.5-0.5,0.8-1.3,0.8-2V19.7c0-1,0.3-1.4,0.9-1.4
	c0.3,0,0.8,0.4,1.6,1.1c0.8,0.8,1.6,1.5,2.4,2.1c2.2,1.5,5,1.5,7.1,0c0.9-0.6,1.7-1.3,2.5-2.1c0.8-0.7,1.3-1.1,1.6-1.1
	c0.6,0,0.9,0.5,0.9,1.4v16.9c0,1.6,1.2,2.8,2.8,2.8c0,0,0,0,0,0h5.6c0.8,0,1.5-0.3,2-0.8c0.5-0.5,0.8-1.3,0.8-2V13.1H45.1V36.6z"/>
<path d="M129.4,2.8c0-0.8-0.3-1.5-0.8-2c-0.5-0.5-1.2-0.8-2-0.8h-5.5c-0.7,0-1.5,0.3-2,0.8c-0.5,0.5-0.8,1.2-0.8,2v2.8h11.3
	L129.4,2.8z"/>
<rect x="118.2" y="7.7" width="11.3" height="4.5"/>
<path d="M118.2,16.9c0,1-0.3,1.4-0.8,1.4c-0.4-0.1-0.9-0.3-1.1-0.6l-4.6-4.6H90.1v23.5c0,1.6,1.3,2.8,2.8,2.8c0,0,0,0,0,0h5.6
	c0.8,0,1.5-0.3,2-0.8c0.5-0.5,0.8-1.3,0.8-2V22.6c0-1,0.3-1.4,0.9-1.4c0.4,0.1,0.9,0.3,1.1,0.6L119,37.5c1,1,2.2,1.6,3.6,1.8
	c1.3,0.1,2.7,0.2,4.1,0.2c0.8,0,1.5-0.3,2-0.8c0.5-0.5,0.8-1.3,0.8-2V13.1h-11.3V16.9z"/>
<polygon points="90.1,7.7 90.1,12.1 110.6,12.1 106.1,7.7 "/>
<path d="M100.5,2c-1-1-2.2-1.6-3.6-1.8c-1.3-0.1-2.7-0.2-4-0.2c-0.7,0-1.5,0.3-2,0.8c-0.5,0.5-0.8,1.2-0.8,2v2.8h14.1L100.5,2z"/>
<path d="M156.3,7.7h-11.5c0.1,0.3,0.1,0.6,0.1,0.9v3.6h11.3V8.5C156.2,8.2,156.2,7.9,156.3,7.7z"/>
<path d="M144.9,30.9c0,1.9-1.4,2.9-4.1,2.9h-3c-2.8,0-4.1,0.9-4.1,2.8c0,0.8,0.3,1.5,0.8,2c0.5,0.5,1.2,0.8,2,0.8h28.1
	c0.8,0,1.5-0.3,2-0.8c0.5-0.5,0.8-1.3,0.8-2c0-1.9-1.4-2.8-4.1-2.8h-3c-2.8,0-4.1-1-4.1-2.9V13.1h-11.2V30.9z"/>
<path d="M167.4,2.9c0-0.7-0.3-1.5-0.8-2c-0.5-0.5-1.2-0.8-2-0.8h-28.1c-0.8,0-1.5,0.3-2,0.8c-0.5,0.5-0.8,1.2-0.8,2
	c0,1.8,1.3,2.7,3.8,2.8h26.2C166.2,5.6,167.4,4.6,167.4,2.9z"/>
<rect x="199.3" y="7.7" width="11.3" height="4.5"/>
<path d="M182.4,2.8c0-0.8-0.3-1.5-0.8-2c-0.5-0.5-1.2-0.8-2-0.8h-5.6c-0.7,0-1.5,0.3-2,0.8c-0.5,0.5-0.8,1.2-0.8,2v2.8h11.2
	L182.4,2.8z"/>
<path d="M199.3,14.1c0,1.3-0.4,2.5-1.1,3.6c-2.1,3.2-4.5,4.9-7.3,4.9c-2.8,0-5.2-1.6-7.4-4.8c-0.7-1.1-1.1-2.3-1.1-3.6v-1h-11.3v6.6
	c0,1.8,0.7,3.6,2,4.8L186,37.5c2.7,2.7,7,2.7,9.6,0l12.9-12.9c1.3-1.3,2-3,2-4.8v-6.6h-11.3V14.1z"/>
<path d="M210.5,2.8c0-0.8-0.3-1.5-0.8-2c-0.5-0.5-1.2-0.8-2-0.8h-5.6c-0.7,0-1.5,0.3-2,0.8c-0.5,0.5-0.8,1.2-0.8,2v2.8h11.2
	L210.5,2.8z"/>
<rect x="171.1" y="7.7" width="11.3" height="4.5"/>
<path d="M255.5,7.7h-11.3c0.1,0.3,0.1,0.5,0.1,0.8v3.7h11.3V8.5C255.5,8.2,255.5,7.9,255.5,7.7z"/>
<path d="M227.5,7.7h-11.3c0,0.3-0.1,0.5-0.1,0.8v3.7h11.3V8.5C227.4,8.2,227.4,7.9,227.5,7.7z"/>
<path d="M252.8,2.7c-1.5-1.6-3.5-2.6-5.7-2.7h-22.5c-2.2,0.1-4.3,1.1-5.7,2.7c-0.9,0.8-1.6,1.8-2.1,2.9h38.1
	C254.4,4.5,253.7,3.6,252.8,2.7z"/>
<path d="M244.3,31c0,0.7-0.3,1.5-0.8,2c-0.5,0.5-1.2,0.8-2,0.8h-11.2c-1.5,0-2.8-1.2-2.8-2.8c0,0,0,0,0-0.1V13.1h-11.3V31
	c0.5,4.5,4,8,8.5,8.5h22.5c2.2-0.1,4.3-1.1,5.7-2.8c1.6-1.5,2.6-3.5,2.7-5.7V13.1h-11.2V31z"/>
<path d="M271.6,2c-1-1-2.2-1.6-3.6-1.8c-1.3-0.1-2.7-0.2-4-0.2c-1.3-0.1-2.4,0.7-2.7,2c-0.2,1.2-0.2,2.4-0.2,3.6h14L271.6,2z"/>
<path d="M300.6,2.8c0.1-1.3-0.8-2.4-2-2.6c-1.2-0.2-2.4-0.2-3.6-0.2c-1.8,0-3.6,0.7-4.8,2l-3.6,3.6h14C300.5,4.9,300.6,4,300.6,2.8z
	"/>
<path d="M270.4,17.7c0.5,0.5,0.8,1.3,0.8,2c0,0.7-0.3,1.5-0.8,2l-7.3,7.2c-1,1-1.6,2.2-1.8,3.6c-0.2,1.3-0.2,2.7-0.2,4
	c-0.1,1.3,0.7,2.4,2,2.7c1.2,0.2,2.4,0.2,3.6,0.2c1.8,0,3.6-0.7,4.8-2l7.2-7.3c0.5-0.5,1.3-0.8,2-0.8c0.7,0,1.5,0.3,2,0.8l7.2,7.3
	c1,1,2.2,1.6,3.6,1.8c1.3,0.1,2.7,0.2,4.1,0.2c1.3,0.1,2.4-0.8,2.6-2c0.2-1.2,0.2-2.4,0.2-3.6c0-1.8-0.7-3.6-2-4.8l-7.3-7.2
	c-0.5-0.5-0.8-1.3-0.8-2c0-0.7,0.3-1.5,0.8-2l4.6-4.6h-30.1L270.4,17.7z"/>
<path d="M300.2,7.7h-15.7l-1.6,1.7c-0.5,0.5-1.3,0.8-2,0.8c-0.7,0-1.5-0.3-2-0.8l-1.7-1.7h-15.8c0.3,1.1,0.9,2.1,1.7,2.8l1.6,1.6
	h32.1l1.7-1.6C299.4,9.7,299.9,8.7,300.2,7.7z"/>
<path class="st0" d="M309.1,39.3c-0.2-0.1-0.5-0.2-0.6-0.4C308.6,39,308.8,39.2,309.1,39.3z"/>
<path class="st0" d="M346.8,25.6c0,0.1-0.1,0.1-0.1,0.2C346.7,25.7,346.7,25.6,346.8,25.6z"/>
<path class="st0" d="M333.4,39c-0.1,0.1-0.3,0.2-0.4,0.3C333.1,39.1,333.3,39.1,333.4,39z"/>
<path class="st0" d="M307.8,37.4c0,0.5,0.2,1,0.6,1.4C308.1,38.5,307.8,38,307.8,37.4z"/>
<path class="st0" d="M307.8,15.2c0-0.1,0-0.3,0-0.4C307.8,14.9,307.8,15,307.8,15.2z"/>
<path class="st0" d="M308.1,14.3c0-0.1,0.1-0.1,0.1-0.2C308.2,14.1,308.1,14.2,308.1,14.3z"/>
<path class="st0" d="M307.9,14.6c0-0.1,0-0.2,0.1-0.2C308,14.5,308,14.6,307.9,14.6z"/>
<path class="st0" d="M322.1,0.3l0.1-0.1L322.1,0.3z"/>
<path class="st0" d="M322.5,0.1h0.1H322.5z"/>
<path class="st0" d="M308.3,13.9c0-0.1,0.1-0.1,0.2-0.2S308.3,13.9,308.3,13.9z"/>
<path class="st0" d="M347,25.2c0,0.1-0.1,0.1-0.1,0.2C346.9,25.4,347,25.3,347,25.2z"/>
<path class="st0" d="M321.6,0.6L321.6,0.6z"/>
<path class="st0" d="M347.2,24.3L347.2,24.3c0,0.1,0,0.3,0,0.4C347.3,24.6,347.3,24.4,347.2,24.3z"/>
<path class="st0" d="M347.2,24.8c0,0.1,0,0.2-0.1,0.2C347.1,25,347.1,24.9,347.2,24.8z"/>
<path class="st0" d="M321.8,0.5l0.1-0.1L321.8,0.5z"/>
<path class="st1" d="M321,12.2h11.1c1.7,0,3,1.3,3,3v11.1h10.1c0.5,0,1-0.2,1.4-0.6c0.1-0.1,0.1-0.1,0.1-0.2c0,0,0.1-0.1,0.1-0.1
	c0-0.1,0.1-0.1,0.1-0.2c0,0,0.1-0.1,0.1-0.1c0-0.1,0.1-0.2,0.1-0.2c0,0,0-0.1,0-0.1c0-0.1,0-0.3,0-0.4V2c0-0.8-0.5-1.5-1.2-1.8
	c-0.2-0.1-0.5-0.2-0.8-0.2H323c-0.1,0-0.3,0-0.4,0h-0.1l-0.2,0.1l-0.1,0.1l-0.2,0.1l-0.1,0.1c-0.1,0-0.1,0.1-0.2,0.2l0,0
	C321.2,0.9,321,1.4,321,2L321,12.2z"/>
<path class="st1" d="M335.1,37.3c2.5-2.5,7.4-7.4,10-10h-10V37.3z"/>
<path class="st1" d="M320,2.2c-2.6,2.6-7.5,7.5-10,10h10V2.2z"/>
<path class="st1" d="M323,26.3h11.1V15.2c0-1.1-0.9-2-2-2H321v11.1C321,25.4,321.9,26.3,323,26.3z"/>
<path class="st1" d="M320,24.3V13.2h-10.1c-0.5,0-1,0.2-1.4,0.6c-0.1,0.1-0.1,0.1-0.2,0.2l-0.1,0.1c0,0.1-0.1,0.1-0.1,0.2
	c0,0,0,0.1-0.1,0.1s0,0.2-0.1,0.2c0,0.1,0,0.1,0,0.1c0,0.1,0,0.3,0,0.4v22.3c0,1.1,0.9,2,2,2h22.2c0.3,0,0.6-0.1,0.9-0.2
	c0.1-0.1,0.3-0.2,0.4-0.3c0.5-0.4,0.7-0.9,0.7-1.5V27.3H323C321.3,27.3,320,26,320,24.3C320,24.3,320,24.3,320,24.3z"/>
<path class="st2" d="M308.2,14.1l0.1-0.1L308.2,14.1z"/>
<path class="st2" d="M308,14.4c0,0,0-0.1,0.1-0.1S308,14.4,308,14.4z"/>
<path class="st2" d="M307.9,14.7c0,0,0-0.1,0-0.1S307.9,14.7,307.9,14.7z"/>
<path class="st2" d="M332.1,39.4c0.3,0,0.6-0.1,0.9-0.2C332.7,39.4,332.4,39.4,332.1,39.4z"/>
<path class="st2" d="M346,0.2c0.2,0.1,0.4,0.2,0.6,0.4C346.5,0.4,346.3,0.3,346,0.2z"/>
<path class="st2" d="M322.6,0.1c0.1,0,0.3,0,0.4,0C322.9,0.1,322.7,0.1,322.6,0.1z"/>
<path class="st2" d="M321.6,0.6L321.6,0.6c0,0,0.1,0,0.1-0.1L321.6,0.6z"/>
<path class="st2" d="M322.2,0.2l0.2-0.1L322.2,0.2z"/>
<path class="st2" d="M321.9,0.4l0.2-0.1L321.9,0.4z"/>
<path class="st2" d="M346.9,25.4c0,0-0.1,0.1-0.1,0.1C346.8,25.5,346.9,25.5,346.9,25.4z"/>
<path class="st2" d="M347.2,2c0-0.5-0.2-1-0.6-1.4C347,1,347.2,1.5,347.2,2z"/>
<path class="st2" d="M347.2,24.7c0,0,0,0.1,0,0.1S347.2,24.7,347.2,24.7z"/>
</svg>
